<svg width="40" height="40" viewBox="0 0 40 40" fill="none" xmlns="http://www.w3.org/2000/svg">
<path d="M6.464 20.5C6.20774 20.5 5.99922 20.7078 6.00742 20.9639C6.06331 22.7099 6.43429 24.4327 7.10375 26.0489C7.83244 27.8081 8.9005 29.4066 10.247 30.753C11.5934 32.0995 13.1919 33.1676 14.9511 33.8963C16.7103 34.6249 18.5958 35 20.5 35C22.4042 35 24.2897 34.6249 26.0489 33.8963C27.8081 33.1676 29.4066 32.0995 30.753 30.753C32.0995 29.4066 33.1676 27.8081 33.8963 26.0489C34.5657 24.4327 34.9367 22.7099 34.9926 20.9639C35.0008 20.7078 34.7923 20.5 34.536 20.5L28.2141 20.5C27.9579 20.5 27.7517 20.708 27.7353 20.9637C27.6844 21.7572 27.5033 22.538 27.1982 23.2745C26.8339 24.1541 26.2999 24.9534 25.6266 25.6266C24.9534 26.2999 24.1541 26.8339 23.2745 27.1982C22.3949 27.5626 21.4521 27.7501 20.5 27.7501C19.5479 27.7501 18.6051 27.5626 17.7255 27.1982C16.8459 26.8339 16.0466 26.2999 15.3734 25.6266C14.7001 24.9534 14.1661 24.1541 13.8018 23.2745C13.4967 22.538 13.3156 21.7572 13.2647 20.9637C13.2483 20.708 13.0421 20.5 12.7859 20.5L6.464 20.5Z" fill="#542CBA"/>
<path d="M6 8.77778C6 8.34822 6.34822 8 6.77778 8H7.5C10.5376 8 13 10.4624 13 13.5V15.5C13 17.433 11.433 19 9.5 19V19C7.567 19 6 17.433 6 15.5V8.77778Z" fill="#FFC4B3"/>
<path d="M28 12.2222C28 8.78578 30.7858 6 34.2222 6V6C34.6518 6 35 6.34822 35 6.77778V19C35 19.5523 34.5523 20 34 20H29C28.4477 20 28 19.5523 28 19V12.2222Z" fill="#FA5252"/>
</svg>
